<svg width="40" height="40" viewBox="0 0 40 40" fill="none" xmlns="http://www.w3.org/2000/svg">
<circle cx="23" cy="23" r="17" fill="#FFD318" fill-opacity="0.6"/>
<path d="M2.16354 7.97439C3.6624 5.68604 6.00009 3.99851 8.73485 3.33732C8.94557 3.28682 9.11914 3.13763 9.20041 2.93735C9.28226 2.7365 9.26253 2.50894 9.14759 2.32492C8.27219 0.929388 6.7234 0 4.95402 0C2.21869 0 0 2.21753 0 4.95286C0 6.11387 0.401128 7.18026 1.07103 8.02373C1.20513 8.19382 1.41295 8.28786 1.62948 8.27799C1.846 8.26812 2.04512 8.15493 2.16354 7.97439Z" fill="#FF037E"/>
<path d="M20.0459 0C18.2846 0 16.7411 0.92068 15.8639 2.30692C15.7478 2.49036 15.7275 2.71966 15.8094 2.92168C15.8918 3.12427 16.0659 3.27288 16.279 3.32281C19.0213 3.96833 21.3671 5.64424 22.8787 7.92505C22.9989 8.10616 23.1992 8.2182 23.4169 8.22575C23.6346 8.23387 23.8412 8.13635 23.9747 7.96394C24.6162 7.13033 24.9999 6.08775 24.9999 4.95344C24.9982 2.21753 22.7812 0 20.0459 0Z" fill="#FF037E"/>
<path d="M23.4513 15.1697C23.4513 13.2576 22.9538 11.4603 22.0865 9.89644C20.4791 6.99972 17.5923 4.91745 14.1946 4.39616C13.653 4.31314 13.1032 4.25684 12.5384 4.25684C11.9486 4.25684 11.3739 4.31721 10.8091 4.40777C7.42589 4.95054 4.55355 7.04152 2.96297 9.94171C2.11137 11.4951 1.62549 13.2761 1.62549 15.1697C1.62549 18.4124 3.05527 21.3213 5.30763 23.3206L4.38811 24.6157C3.9922 25.1736 4.1234 25.9456 4.68126 26.3427C4.89895 26.4971 5.14915 26.572 5.39703 26.572C5.7848 26.572 6.16677 26.3903 6.40768 26.0507L7.32662 24.7562C8.87599 25.602 10.6518 26.0838 12.5384 26.0838C14.4244 26.0838 16.2002 25.602 17.7496 24.7562L18.6685 26.0507C18.91 26.3909 19.2914 26.572 19.6792 26.572C19.9271 26.572 20.1767 26.4971 20.3944 26.3427C20.9522 25.9456 21.084 25.1736 20.6881 24.6157L19.7686 23.3206C22.0209 21.3213 23.4513 18.4124 23.4513 15.1697ZM12.539 23.0309C8.20377 23.0309 4.67778 19.5049 4.67778 15.1697C4.67778 13.8183 5.02086 12.5464 5.62342 11.4342C6.7705 9.31883 8.86264 7.79501 11.3275 7.4113C11.7234 7.34976 12.1257 7.30797 12.539 7.30797C12.9279 7.30797 13.3081 7.3457 13.6826 7.40085C16.1683 7.7654 18.2831 9.28923 19.4435 11.4139C20.053 12.5302 20.3996 13.809 20.3996 15.1692C20.3996 19.5049 16.8736 23.0309 12.539 23.0309Z" fill="#FF037E"/>
<path d="M16.9427 17.009L13.9438 15.1571C13.8817 14.8065 13.6918 14.5041 13.4254 14.2899L13.5624 10.527C13.5792 10.0464 13.2042 9.64293 12.7241 9.62494C12.2452 9.60288 11.84 9.98253 11.822 10.4632L11.6845 14.2301C11.3124 14.4925 11.0674 14.9244 11.0674 15.4149C11.0674 16.2166 11.717 16.8656 12.5186 16.8656C12.7468 16.8656 12.9598 16.8081 13.1514 16.7146L16.0278 18.4921C16.1706 18.5792 16.3291 18.6216 16.4846 18.6216C16.7766 18.6216 17.0611 18.4753 17.2265 18.2089C17.4796 17.7984 17.3519 17.2621 16.9427 17.009Z" fill="#FF037E"/>
</svg>
