<svg width="34" height="38" viewBox="0 0 34 38" fill="none" xmlns="http://www.w3.org/2000/svg">
<circle cx="17" cy="21" r="17" fill="#FFD318" fill-opacity="0.6"/>
<g clip-path="url(#clip0)">
<path d="M20.7043 5.22225C20.6153 4.88873 20.4346 4.53336 20.3009 4.22222C18.7012 0.377774 15.2059 -1 12.3836 -1C8.60551 -1 4.44434 1.5334 3.88879 6.75533V7.8222C3.88879 7.86672 3.90414 8.26667 3.92594 8.46673C4.23736 10.9554 6.20109 13.6003 7.66768 16.0889C9.24551 18.7552 10.8828 21.3781 12.5048 23.9999C13.505 22.289 14.5016 20.5556 15.479 18.8889C15.7454 18.3998 16.0546 17.911 16.3213 17.4441C16.4991 17.1333 16.8386 16.8224 16.9937 16.5332C18.5715 13.6445 21.1111 10.7335 21.1111 7.86666V6.68895C21.1112 6.37816 20.726 5.28926 20.7043 5.22225ZM12.4528 10.5779C11.3422 10.5779 10.1266 10.0226 9.5266 8.489C9.43721 8.24487 9.44441 7.75564 9.44441 7.71083V7.02194C9.44441 5.06688 11.1044 4.17781 12.5486 4.17781C14.3265 4.17781 15.7015 5.60023 15.7015 7.37813C15.7015 9.15597 14.2307 10.5779 12.4528 10.5779Z" fill="#FF037E"/>
</g>
<defs>
<clipPath id="clip0">
<rect width="25" height="25" fill="white"/>
</clipPath>
</defs>
</svg>
