<svg width="1366" height="443" viewBox="0 0 1366 443" fill="none" xmlns="http://www.w3.org/2000/svg">
<g filter="url(#filter0_d)">
<path d="M-7 355.751C222.805 410.663 452.695 437.015 682.5 434.88C912.305 432.745 1142.2 402.051 1372 342.869V0C1169.79 71.6212 939.981 108.72 682.5 111.296C425.019 113.799 195.214 84.1347 -7 22.3034V355.751Z" fill="#FF037E"/>
<path d="M-7 355.751C222.805 410.663 452.695 437.015 682.5 434.88C912.305 432.745 1142.2 402.051 1372 342.869V0C1169.79 71.6212 939.981 108.72 682.5 111.296C425.019 113.799 195.214 84.1347 -7 22.3034V355.751Z" fill="url(#paint0_linear)"/>
</g>
<defs>
<filter id="filter0_d" x="-11" y="0" width="1387" height="443" filterUnits="userSpaceOnUse" color-interpolation-filters="sRGB">
<feFlood flood-opacity="0" result="BackgroundImageFix"/>
<feColorMatrix in="SourceAlpha" type="matrix" values="0 0 0 0 0 0 0 0 0 0 0 0 0 0 0 0 0 0 127 0"/>
<feOffset dy="4"/>
<feGaussianBlur stdDeviation="2"/>
<feColorMatrix type="matrix" values="0 0 0 0 0 0 0 0 0 0 0 0 0 0 0 0 0 0 0.25 0"/>
<feBlend mode="normal" in2="BackgroundImageFix" result="effect1_dropShadow"/>
<feBlend mode="normal" in="SourceGraphic" in2="effect1_dropShadow" result="shape"/>
</filter>
<linearGradient id="paint0_linear" x1="682.5" y1="56.5" x2="682.5" y2="435" gradientUnits="userSpaceOnUse">
<stop stop-color="#FF5C97"/>
<stop offset="1" stop-color="#FF037E"/>
</linearGradient>
</defs>
</svg>
