<svg width="39" height="35" viewBox="0 0 39 35" fill="none" xmlns="http://www.w3.org/2000/svg">
<circle cx="22" cy="18" r="17" fill="#FFD318" fill-opacity="0.6"/>
<g clip-path="url(#clip0)">
<path d="M1.5625 13.2664V22.6414C1.5625 23.5039 2.26406 24.2039 3.125 24.2039H10.9375V13.2664H1.5625Z" fill="#292929"/>
<path d="M23.4375 7.01607H18.4938C18.8484 6.77388 19.1531 6.53325 19.3656 6.31763C20.6266 5.05044 20.6266 2.98794 19.3656 1.72075C18.1406 0.486377 16.0063 0.489502 14.7828 1.72075C14.1047 2.40044 12.3078 5.16763 12.5563 7.01607H12.4438C12.6906 5.16763 10.8938 2.40044 10.2172 1.72075C8.99219 0.489502 6.85781 0.489502 5.63438 1.72075C4.375 2.98794 4.375 5.05044 5.63281 6.31763C5.84688 6.53325 6.15156 6.77388 6.50625 7.01607H1.5625C0.701563 7.01607 0 7.71763 0 8.57856V10.9223C0 11.3536 0.35 11.7036 0.78125 11.7036H10.9375V8.57856H14.0625V11.7036H24.2188C24.65 11.7036 25 11.3536 25 10.9223V8.57856C25 7.71763 24.3 7.01607 23.4375 7.01607ZM10.8453 6.9645C10.8453 6.9645 10.7797 7.01607 10.5562 7.01607C9.47656 7.01607 7.41563 5.89419 6.74219 5.21606C6.0875 4.55669 6.0875 3.48169 6.74219 2.82231C7.05938 2.50356 7.47969 2.32857 7.92656 2.32857C8.37187 2.32857 8.79219 2.50356 9.10938 2.82231C10.1625 3.88169 11.2094 6.58794 10.8453 6.9645ZM14.4422 7.01607C14.2203 7.01607 14.1547 6.96606 14.1547 6.9645C13.7906 6.58794 14.8375 3.88169 15.8906 2.82231C16.5203 2.18638 17.6219 2.18325 18.2578 2.82231C18.9141 3.48169 18.9141 4.55669 18.2578 5.21606C17.5844 5.89419 15.5234 7.01607 14.4422 7.01607Z" fill="#292929"/>
<path d="M14.0625 13.2664V24.2039H21.875C22.7375 24.2039 23.4375 23.5039 23.4375 22.6414V13.2664H14.0625Z" fill="#292929"/>
<circle cx="39" cy="40" r="16" fill="#FF5C97" fill-opacity="0.6"/>
</g>
<defs>
<clipPath id="clip0">
<rect width="25" height="25" fill="white"/>
</clipPath>
</defs>
</svg>
