<svg width="25" height="25" viewBox="0 0 25 25" fill="none" xmlns="http://www.w3.org/2000/svg">
<path d="M22.5827 22.8616L20.9255 24.5187C20.6295 24.8131 19.7628 24.9993 19.7369 24.9993C14.4911 25.0435 9.4406 22.9837 5.72903 19.2713C2.00682 15.5498 -0.055334 10.4794 0.00189245 5.21835C0.00189245 5.21527 0.191882 4.37304 0.487145 4.08007L2.14422 2.42148C2.75228 1.81421 3.91644 1.53955 4.73201 1.81113L5.08142 1.92861C5.897 2.20019 6.74915 3.10043 6.97498 3.92895L7.80959 6.9913C8.03616 7.82137 7.73176 9.00233 7.12449 9.6096L6.01673 10.7174C7.10315 14.7441 10.2608 17.901 14.2852 18.9889L15.393 17.8811C16.0003 17.2738 17.1843 16.9702 18.0144 17.196L21.0768 18.0322C21.9038 18.2565 22.804 19.1079 23.0772 19.9242L23.1932 20.2736C23.4645 21.0901 23.1899 22.2543 22.5827 22.8616ZM14.0624 12.4996H15.6249C15.6249 10.7739 14.2257 9.37474 12.5 9.37474V10.9372C13.3612 10.9372 14.0624 11.639 14.0624 12.4996ZM20.3122 12.4996C20.3122 8.18455 16.815 4.68734 12.5 4.68734V6.24984C15.9468 6.24984 18.7498 9.05433 18.7498 12.4996H20.3122ZM12.5 0V1.56245C18.53 1.56245 23.4371 6.46952 23.4371 12.4996H24.9996C24.9996 5.59677 19.4028 0 12.5 0Z" fill="#FF037E"/>
</svg>
