<svg width="41" height="38" viewBox="0 0 41 38" fill="none" xmlns="http://www.w3.org/2000/svg">
<circle cx="24" cy="21" r="17" fill="#FFD318" fill-opacity="0.6"/>
<g clip-path="url(#clip0)">
<path d="M9.91232 12.3354C10.5356 12.3354 11.0409 11.8301 11.0409 11.2068C11.0409 10.5834 10.5356 10.0781 9.91232 10.0781C9.28899 10.0781 8.78369 10.5834 8.78369 11.2068C8.78369 11.8301 9.28899 12.3354 9.91232 12.3354Z" fill="#292929"/>
<path d="M17.0822 16.9162C17.7056 16.9162 18.2109 16.4109 18.2109 15.7876C18.2109 15.1642 17.7056 14.6589 17.0822 14.6589C16.4589 14.6589 15.9536 15.1642 15.9536 15.7876C15.9536 16.4109 16.4589 16.9162 17.0822 16.9162Z" fill="#292929"/>
<path d="M26.3879 14.991L25.9785 14.4322C25.5359 13.8236 25.5249 12.9993 25.9619 12.3797L26.3603 11.8153C26.9688 10.9523 26.6867 9.75173 25.7517 9.24828L25.1431 8.92186C24.4792 8.56778 24.1141 7.82643 24.2413 7.07955L24.3575 6.39905C24.5346 5.35894 23.7545 4.39629 22.6978 4.35203L22.0062 4.32437C21.2538 4.29118 20.601 3.78219 20.3907 3.05743L20.1971 2.39353C19.9039 1.37556 18.7863 0.849972 17.8126 1.27044L17.1764 1.54153C16.4848 1.84029 15.6771 1.66325 15.1736 1.09893L14.7144 0.584413C14.0118 -0.201199 12.778 -0.195666 12.0809 0.606543L11.6273 1.1266C11.1294 1.69644 10.3271 1.88455 9.63005 1.59686L8.98828 1.3313C8.00903 0.927427 6.90254 1.47514 6.62038 2.49312L6.43781 3.16255C6.23864 3.89284 5.59687 4.41289 4.84446 4.45162L4.1529 4.49034C3.09619 4.5512 2.33271 5.52492 2.52635 6.56502L2.65359 7.24552C2.79191 7.98687 2.43783 8.73376 1.77946 9.0989L1.17642 9.43638C0.252496 9.9509 -0.0130627 11.157 0.612108 12.009L1.02151 12.5678C1.46411 13.1763 1.47517 14.0007 1.03811 14.6203L0.63977 15.1846C0.0311971 16.0477 0.313354 17.2482 1.24834 17.7517L1.85692 18.0781C2.52081 18.4322 2.88596 19.1735 2.75871 19.9204L2.64253 20.6009C2.46549 21.641 3.24557 22.6037 4.30227 22.6479L4.99383 22.6756C5.74625 22.7088 6.39908 23.2178 6.60932 23.9425L6.80295 24.6064C7.09617 25.6244 8.21374 26.15 9.18745 25.7295L9.82369 25.4584C10.5152 25.1597 11.323 25.3367 11.8264 25.901L12.2856 26.4156C12.9938 27.2012 14.2275 27.1956 14.9191 26.3934L15.3728 25.8734C15.8707 25.3035 16.6729 25.1154 17.37 25.4031L18.0118 25.6687C18.991 26.0725 20.0975 25.5248 20.3797 24.5069L20.5622 23.8374C20.7614 23.1071 21.4032 22.5871 22.1556 22.5484L22.8471 22.5096C23.9039 22.4488 24.6673 21.4751 24.4737 20.435L24.3465 19.7545C24.2081 19.0131 24.5622 18.2662 25.2206 17.9011L25.8236 17.5636C26.7475 17.0546 27.0131 15.8485 26.3879 14.991ZM7.1847 11.2068C7.1847 9.70194 8.40184 8.4848 9.90668 8.4848C11.4115 8.4848 12.6287 9.70194 12.6287 11.2068C12.6287 12.7116 11.4115 13.9288 9.90668 13.9288C8.40184 13.9288 7.1847 12.7061 7.1847 11.2068ZM10.4323 18.2275C10.1999 18.5096 9.77943 18.5484 9.49727 18.316C9.21511 18.0836 9.17639 17.6632 9.40875 17.381L16.5512 8.77802C16.7836 8.49586 17.204 8.45713 17.4862 8.6895C17.7683 8.92186 17.8071 9.34233 17.5747 9.62449L10.4323 18.2275ZM17.0823 18.5096C15.5775 18.5096 14.3603 17.2925 14.3603 15.7877C14.3603 14.2828 15.5775 13.0657 17.0823 13.0657C18.5871 13.0657 19.8043 14.2828 19.8043 15.7877C19.8043 17.2925 18.5871 18.5096 17.0823 18.5096Z" fill="#292929"/>
</g>
<defs>
<clipPath id="clip0">
<rect width="27" height="27" fill="white"/>
</clipPath>
</defs>
</svg>
