<svg xmlns="http://www.w3.org/2000/svg" viewBox="0 0 384.97 384.97" width="512" height="512"><path d="M12.048 120.31h360.873c6.64 0 12.029-5.39 12.029-12.029 0-6.64-5.39-12.028-12.029-12.028H12.048c-6.64 0-12.029 5.39-12.029 12.028 0 6.64 5.39 12.03 12.029 12.03zM372.921 180.456H12.048c-6.64 0-12.029 5.39-12.029 12.029s5.39 12.029 12.029 12.029h360.873c6.64 0 12.029-5.39 12.029-12.029s-5.389-12.029-12.029-12.029zM372.921 264.66H132.339c-6.64 0-12.029 5.39-12.029 12.029 0 6.64 5.39 12.028 12.029 12.028h240.582c6.64 0 12.029-5.39 12.029-12.028 0-6.64-5.389-12.03-12.029-12.03z" data-original="#000000" class="active-path" data-old_color="#000000" fill="#FF037E"/></svg>