<svg width="25" height="25" viewBox="0 0 25 25" fill="none" xmlns="http://www.w3.org/2000/svg">
<path d="M20.7043 6.22225C20.6153 5.88873 20.4346 5.53336 20.3009 5.22222C18.7012 1.37777 15.2059 0 12.3836 0C8.60551 0 4.44434 2.5334 3.88879 7.75533V8.8222C3.88879 8.86672 3.90414 9.26667 3.92594 9.46673C4.23736 11.9554 6.20109 14.6003 7.66768 17.0889C9.24551 19.7552 10.8828 22.3781 12.5048 24.9999C13.505 23.289 14.5016 21.5556 15.479 19.8889C15.7454 19.3998 16.0546 18.911 16.3213 18.4441C16.4991 18.1333 16.8386 17.8224 16.9937 17.5332C18.5715 14.6445 21.1111 11.7335 21.1111 8.86666V7.68895C21.1112 7.37816 20.726 6.28926 20.7043 6.22225ZM12.4528 11.5779C11.3422 11.5779 10.1266 11.0226 9.5266 9.489C9.43721 9.24487 9.44441 8.75564 9.44441 8.71083V8.02194C9.44441 6.06688 11.1044 5.17781 12.5486 5.17781C14.3265 5.17781 15.7015 6.60023 15.7015 8.37813C15.7015 10.156 14.2307 11.5779 12.4528 11.5779Z" fill="#FF037E"/>
</svg>
