<svg width="30" height="30" fill="none" xmlns="http://www.w3.org/2000/svg"><g clip-path="url(#clip0)"><path d="M15 0C6.718 0 .002 6.716.002 15c0 8.284 6.716 15 15 15 8.284 0 15-6.717 15-15 0-8.284-6.716-15-15-15zm7.922 21.887l-1.201 1.2c-.215.215-.842.349-.863.349-3.799.033-7.457-1.46-10.145-4.148a14.191 14.191 0 01-4.15-10.18c0-.002.138-.612.352-.824l1.201-1.201c.44-.442 1.284-.641 1.875-.443l.253.084c.59.197 1.209.85 1.372 1.45l.604 2.217c.162.603-.057 1.46-.497 1.9l-.802.801a8.518 8.518 0 005.99 5.992l.802-.802c.441-.442 1.298-.662 1.899-.499l2.217.606c.6.165 1.253.78 1.45 1.37l.084.256c.196.59-.002 1.434-.441 1.872z" fill="#FFD318"/></g><defs><clipPath id="clip0"><path fill="#fff" d="M0 0h30v30H0z"/></clipPath></defs></svg>