<svg width="30" height="30" fill="none" xmlns="http://www.w3.org/2000/svg"><circle cx="15" cy="15" r="15" fill="#fff"/><path d="M18.326 14.445a.586.586 0 00-.586-.586h-6.035a.586.586 0 100 1.172h6.035a.586.586 0 00.586-.586zM11.705 16.203a.586.586 0 000 1.172h3.665a.586.586 0 100-1.172h-3.665z" fill="#000"/><path d="M13.082 21.828h-1.96a1.173 1.173 0 01-1.172-1.172V10.344c0-.646.526-1.172 1.172-1.172h7.204c.646 0 1.172.526 1.172 1.172v3.603a.586.586 0 001.172 0v-3.603A2.346 2.346 0 0018.326 8h-7.204a2.346 2.346 0 00-2.344 2.344v10.312A2.346 2.346 0 0011.122 23h1.96a.586.586 0 100-1.172z" fill="#000"/><path d="M21.708 16.483a1.76 1.76 0 00-2.486 0l-3.217 3.21a.586.586 0 00-.146.244l-.701 2.307a.586.586 0 00.717.735l2.365-.655a.587.587 0 00.258-.15l3.21-3.204a1.76 1.76 0 000-2.486zm-3.93 4.752l-1.19.33.349-1.146 2.17-2.166.83.829-2.158 2.153zm3.101-3.095l-.113.114-.829-.829.113-.113a.587.587 0 01.83.828zM17.74 11.516h-6.035a.586.586 0 000 1.171h6.035a.586.586 0 100-1.171z" fill="#000"/></svg>