<svg width="42" height="40" viewBox="0 0 42 40" fill="none" xmlns="http://www.w3.org/2000/svg">
<circle cx="25" cy="23" r="17" fill="#FFD318" fill-opacity="0.6"/>
<g clip-path="url(#clip0)">
<path d="M26.3287 16.2751C25.3747 15.3125 24.1138 14.7263 22.7755 14.6025C23.9308 13.5631 24.6598 12.0625 24.6598 10.3862C24.6598 7.25023 22.1185 4.70898 18.9819 4.70898C15.9862 4.70898 13.5334 7.02941 13.3206 9.97019C15.9856 11.1231 17.8559 13.779 17.8559 16.8625C17.8559 17.9886 17.5997 19.089 17.1233 20.0876C17.8095 20.4463 18.4421 20.9098 18.9935 21.4662C20.4075 22.8899 21.2108 24.8583 21.1956 26.8652L21.1944 26.9061L21.1932 26.9409L21.1431 27.8906H27.944L28.0001 20.3694C28.0117 18.8353 27.4108 17.3639 26.3287 16.2751Z" fill="#292929"/>
<path d="M14.1421 21.0803C15.2968 20.0415 16.0282 18.5403 16.0282 16.864C16.0282 13.7274 13.4857 11.1855 10.3498 11.1855C7.21316 11.1855 4.67131 13.7274 4.67131 16.864C4.67131 18.5372 5.39964 20.0372 6.55253 21.0766C3.60016 21.3054 1.26814 23.7502 1.24679 26.7606L1.19067 27.8909H9.82394H19.3112L19.3673 26.8453C19.3783 25.3118 18.7768 23.8405 17.6953 22.7517C16.7401 21.7885 15.4798 21.2041 14.1421 21.0803Z" fill="#292929"/>
<path d="M3.66241 6.93803V9.04739C3.66241 9.9209 4.37245 10.6303 5.24657 10.6303C6.12191 10.6303 6.83073 9.9209 6.83073 9.04739V6.93803H8.93765C9.81177 6.93803 10.5212 6.22799 10.5212 5.35387C10.5212 4.48036 9.81177 3.77032 8.93765 3.77032H6.83073V1.69207C6.83073 0.817945 6.12191 0.109131 5.24657 0.109131C4.37245 0.109131 3.66241 0.817945 3.66241 1.69207V3.76971H1.58355C0.708205 3.76971 0 4.47975 0 5.35326C0 6.22738 0.708205 6.93742 1.58355 6.93742H3.66241V6.93803Z" fill="#292929"/>
</g>
<defs>
<clipPath id="clip0">
<rect width="28" height="28" fill="white"/>
</clipPath>
</defs>
</svg>
