<svg width="39" height="35" viewBox="0 0 39 35" fill="none" xmlns="http://www.w3.org/2000/svg">
<circle cx="22" cy="18" r="17" fill="#FFD318" fill-opacity="0.6"/>
<path d="M10.3027 13.9648C10.3027 15.1764 11.2885 16.1621 12.5 16.1621C13.7115 16.1621 14.6973 15.1764 14.6973 13.9648C14.6973 12.7533 13.7115 11.7676 12.5 11.7676C11.2885 11.7676 10.3027 12.7533 10.3027 13.9648Z" fill="#292929"/>
<path d="M12.5 17.627C10.0767 17.627 8.10547 19.5982 8.10547 22.0215V25H16.8945V22.0215C16.8945 19.5982 14.9233 17.627 12.5 17.627Z" fill="#292929"/>
<path d="M6.64062 15.4297C6.64062 14.2181 5.65491 13.2324 4.44336 13.2324C3.23181 13.2324 2.24609 14.2181 2.24609 15.4297C2.24609 16.6412 3.23181 17.627 4.44336 17.627C5.65491 17.627 6.64062 16.6412 6.64062 15.4297Z" fill="#292929"/>
<path d="M22.7539 15.4297C22.7539 14.2181 21.7682 13.2324 20.5566 13.2324C19.3451 13.2324 18.3594 14.2181 18.3594 15.4297C18.3594 16.6412 19.3451 17.627 20.5566 17.627C21.7682 17.627 22.7539 16.6412 22.7539 15.4297Z" fill="#292929"/>
<path d="M3.71094 0L2.59666 2.62699L0 2.9932L1.87283 4.77219L1.44215 7.37305L3.71094 6.18725L5.97973 7.37305L5.54905 4.77219L7.37305 2.9932L4.85249 2.62699L3.71094 0Z" fill="#292929"/>
<path d="M13.6415 2.62699L12.5 0L11.3857 2.62699L8.83789 2.9932L10.6619 4.77219L10.2312 7.37305L12.5 6.18725L14.7688 7.37305L14.3381 4.77219L16.1621 2.9932L13.6415 2.62699Z" fill="#292929"/>
<path d="M21.2891 0L20.1748 2.62699L17.627 2.9932L19.451 4.77219L19.0203 7.37305L21.2891 6.18725L23.5579 7.37305L23.1272 4.77219L25 2.9932L22.4306 2.62699L21.2891 0Z" fill="#292929"/>
<path d="M20.5565 19.0918C19.583 19.0918 18.6921 19.4185 17.9639 19.9541C18.209 20.5994 18.3593 21.2914 18.3593 22.0215V25H24.9999V23.4863C24.9999 21.0592 22.9836 19.0918 20.5565 19.0918Z" fill="#292929"/>
<path d="M0 23.4863V25H6.64062V22.0215C6.64062 21.2914 6.79092 20.5994 7.03602 19.9541C6.30779 19.4185 5.41687 19.0918 4.44336 19.0918C2.01626 19.0918 0 21.0592 0 23.4863Z" fill="#292929"/>
</svg>
