<svg width="25" height="23" fill="none" xmlns="http://www.w3.org/2000/svg"><path d="M17.568 6.082h2.192L16.51.508a.941.941 0 00-1.293-.339.941.941 0 00-.339 1.293l2.69 4.62zM10.131 1.462A.946.946 0 008.5.508L5.25 6.087h2.192l2.69-4.625zM23.388 7.79H1.606C.72 7.79 0 8.51 0 9.398v1.781c0 .888.719 1.606 1.606 1.606h.503l1.55 8.402c.195.99 1.099 1.776 2.038 1.776H18.98c.939 0 1.842-.785 2.037-1.776l1.56-8.407h.817c.888 0 1.606-.718 1.606-1.606V9.392a1.612 1.612 0 00-1.612-1.601zm-14.52 8.397v3.624c0 .518-.42.908-.908.908a.907.907 0 01-.908-.908V14.73c0-.519.42-.909.908-.909.519 0 .909.421.909.909v1.457zm2.916 0v3.624c0 .518-.42.908-.908.908a.907.907 0 01-.909-.908V14.73c0-.519.421-.909.909-.909.487 0 .908.421.908.909v1.457zm2.93 2.105v1.519c0 .487-.39.908-.908.908a.907.907 0 01-.908-.908V14.73c0-.488.42-.909.908-.909.488 0 .909.39.909.909v3.562zm2.916 0v1.519c0 .487-.39.908-.909.908a.907.907 0 01-.908-.908V14.73c0-.488.39-.909.908-.909.488 0 .909.39.909.909v3.562z" fill="#FF037E"/></svg>