<svg width="41" height="38" viewBox="0 0 41 38" fill="none" xmlns="http://www.w3.org/2000/svg">
<circle cx="24" cy="21" r="17" fill="#FFD318" fill-opacity="0.6"/>
<g clip-path="url(#clip0)">
<path d="M25.6149 12.7798C25.1399 11.5441 24.6197 10.1794 23.7845 9.13404C23.1531 8.34385 21.9693 7.65952 20.9212 7.81956C20.9076 7.82164 20.82 7.84077 20.6679 7.87479C20.7057 8.13703 20.7251 8.40294 20.7251 8.67169C20.7251 9.41769 20.5786 10.1423 20.2897 10.8253C20.011 11.4842 19.6124 12.0756 19.105 12.5831C18.5975 13.0905 18.0061 13.4892 17.3472 13.7678C16.6642 14.0567 15.9396 14.2032 15.1936 14.2032C14.4476 14.2032 13.723 14.0567 13.04 13.7678C12.3811 13.4891 11.7897 13.0905 11.2822 12.5831C10.7748 12.0756 10.3762 11.4842 10.0975 10.8253C10.029 10.6633 9.96875 10.4989 9.91631 10.3325C5.56957 11.3296 1.53932 12.2557 1.30397 12.3105C1.09652 12.3588 0.844 12.3876 0.657814 12.4867C0.500759 12.5703 0.388184 12.7039 0.388184 12.9413V23.7915C0.388184 24.219 0.84022 24.6129 1.39722 24.6709L5.43059 25.0904L23.5724 26.9786C25.2407 27.1525 26.5951 26.253 26.5951 24.969C26.5951 24.1585 26.0556 23.391 25.2382 22.8893C26.0556 22.5589 26.5952 21.9021 26.5952 21.0928C26.5952 20.2836 26.0557 19.5161 25.2397 19.0158C27.6512 18.0334 26.2889 14.5336 25.6149 12.7798ZM20.3035 24.8746L2.51971 23.0228V21.2452L20.3035 23.0956C21.9718 23.2696 23.326 23.8078 23.326 24.2986C23.326 24.7896 21.9718 25.0485 20.3035 24.8746ZM20.3035 21.3315L2.51971 19.4798V17.7008L20.3035 19.5539C21.9718 19.7279 23.326 20.266 23.326 20.757C23.326 21.2478 21.9718 21.5056 20.3035 21.3315ZM20.3035 17.7885L2.51971 15.938V14.1591L20.3035 16.0096C21.9718 16.1835 23.326 16.7231 23.326 17.2139C23.326 17.7062 21.9718 17.9624 20.3035 17.7885Z" fill="#292929"/>
<path d="M11.3672 8.67165C11.3672 9.1198 11.4446 9.54984 11.5861 9.94949C12.1121 11.4342 13.5284 12.4979 15.1934 12.4979C17.3066 12.4979 19.0196 10.7848 19.0196 8.67168C19.0196 8.5304 19.0118 8.391 18.9968 8.25367C18.7886 6.33718 17.1653 4.84547 15.1934 4.84547C14.992 4.84547 14.7943 4.86113 14.6014 4.89111C14.4704 4.62322 14.3253 4.3614 14.1689 4.10612C14.0113 3.8488 13.8423 3.59813 13.6654 3.35436C13.4487 3.0556 13.2202 2.76721 12.9859 2.49002C12.5501 1.9746 12.0772 1.4867 11.5573 1.05538C11.1021 0.677635 10.6181 0.31376 10.0741 0.0730625C9.76655 -0.0630744 9.41387 -0.0197038 9.22982 0.294463C9.07433 0.559915 9.14345 1.00263 9.45122 1.13882C9.70649 1.2518 9.94907 1.39257 10.18 1.54908C10.2468 1.5943 10.3129 1.64028 10.3781 1.6878C10.4018 1.70514 10.4869 1.77 10.5092 1.78651C10.6079 1.86461 10.7054 1.94411 10.8006 2.02638C11.0519 2.24346 11.2934 2.4718 11.5241 2.71062C11.767 2.96206 12.0004 3.22271 12.2217 3.49337C12.2846 3.57027 12.347 3.64761 12.4081 3.72596C12.4082 3.72613 12.4083 3.72628 12.4085 3.72645C12.4107 3.72937 12.4131 3.73256 12.4158 3.73608C12.4415 3.77007 12.4673 3.80404 12.4928 3.83826C12.4937 3.83953 12.4946 3.84081 12.4955 3.84206C12.5959 3.97741 12.6944 4.11425 12.7891 4.25369C12.8552 4.35109 12.92 4.44945 12.9834 4.5487C13.1071 4.7423 13.2251 4.93954 13.335 5.14133C13.361 5.18905 13.3865 5.237 13.4117 5.28509C12.1961 5.92598 11.3672 7.20192 11.3672 8.67165Z" fill="#292929"/>
</g>
<defs>
<clipPath id="clip0">
<rect width="27" height="27" fill="white"/>
</clipPath>
</defs>
</svg>
